<svg width="34" height="44" viewBox="0 0 34 44" fill="none" xmlns="http://www.w3.org/2000/svg">
<path d="M5.90036 3.9192C10.3863 -0.0854671 17.084 -1.04097 22.5998 1.14403C30.5003 4.02458 35.0691 13.5585 32.878 21.7013C31.9172 25.0877 30.051 28.0947 28.2608 31.0807C26.6295 28.2282 24.3278 25.8605 21.487 24.2517C23.7887 21.7997 25.3439 18.1393 23.761 14.8653C21.8671 9.69435 14.4021 8.17679 10.8701 12.4765C7.55233 15.7927 8.51311 21.2165 11.5751 24.343C8.7412 25.7411 6.57774 28.1228 5.25063 31.0104C2.09875 27.0268 -0.424145 22.1229 0.0596963 16.8536C-0.202961 11.8793 2.30611 7.15806 5.90036 3.9192Z" fill="white"/>
<path d="M11.4102 38.8292C12.44 34.0236 13.0967 29.1478 14.0575 24.3281C15.6887 24.3352 17.313 24.3352 18.9443 24.3352C19.9465 29.1197 20.6654 33.9604 21.6192 38.759C19.9603 40.2976 18.6401 42.6161 16.5181 43.396C14.4307 42.5739 13.0967 40.3117 11.4102 38.8292Z" fill="white"/>
</svg>
