<svg width="215" height="53" viewBox="0 0 215 53" fill="none" xmlns="http://www.w3.org/2000/svg">
<path d="M5.90036 8.6731C10.3863 4.66844 17.084 3.71294 22.5998 5.89794C30.5003 8.77849 35.0691 18.3124 32.878 26.4552C31.9172 29.8416 30.051 32.8486 28.2608 35.8346C26.6295 32.9821 24.3278 30.6145 21.487 29.0056C23.7887 26.5536 25.3439 22.8932 23.761 19.6192C21.8671 14.4483 14.4021 12.9307 10.8701 17.2304C7.55233 20.5466 8.51311 25.9705 11.5751 29.0969C8.7412 30.495 6.57774 32.8767 5.25063 35.7643C2.09875 31.7807 -0.424145 26.8768 0.0596963 21.6075C-0.202961 16.6333 2.30611 11.912 5.90036 8.6731Z" fill="white"/>
<path d="M11.4102 43.5831C12.44 38.7775 13.0967 33.9017 14.0575 29.082C15.6887 29.0891 17.313 29.0891 18.9443 29.0891C19.9465 33.8736 20.6654 38.7143 21.6192 43.5129C19.9603 45.0515 18.6401 47.37 16.5181 48.1499C14.4307 47.3279 13.0967 45.0656 11.4102 43.5831Z" fill="white"/>
<path d="M55.532 39V29.5307L45.4267 14.2667H51.3273L58.2527 25.008L65.2133 14.2667H70.796L60.6553 29.566V39H55.532ZM76.25 39.3533C74.4127 39.3533 72.752 38.9293 71.268 38.0813C69.784 37.2333 68.6063 36.0909 67.7347 34.654C66.8631 33.2171 66.4274 31.6036 66.4274 29.8133C66.4274 28.0231 66.8514 26.4096 67.6994 24.9727C68.5709 23.5122 69.7487 22.358 71.2327 21.51C72.7403 20.662 74.4127 20.238 76.25 20.238C78.0874 20.238 79.748 20.662 81.232 21.51C82.7396 22.358 83.9174 23.5122 84.7654 24.9727C85.6369 26.4096 86.0727 28.0231 86.0727 29.8133C86.0727 31.6036 85.6369 33.2171 84.7654 34.654C83.9174 36.0909 82.7514 37.2333 81.2674 38.0813C79.7834 38.9293 78.1109 39.3533 76.25 39.3533ZM76.25 35.1487C77.2158 35.1487 78.0756 34.9131 78.8294 34.442C79.6067 33.9709 80.2191 33.3349 80.6667 32.534C81.1378 31.7096 81.3734 30.8027 81.3734 29.8133C81.3734 28.8004 81.1378 27.8936 80.6667 27.0927C80.2191 26.2918 79.6067 25.6558 78.8294 25.1847C78.0756 24.69 77.2158 24.4427 76.25 24.4427C75.3078 24.4427 74.448 24.69 73.6707 25.1847C72.8934 25.6558 72.2809 26.2918 71.8334 27.0927C71.3858 27.8936 71.162 28.8004 71.162 29.8133C71.162 30.8027 71.3858 31.7096 71.8334 32.534C72.2809 33.3349 72.8934 33.9709 73.6707 34.442C74.448 34.9131 75.3078 35.1487 76.25 35.1487ZM95.8322 39.3533C94.4188 39.3533 93.1586 39.0471 92.0515 38.4347C90.9679 37.7987 90.1082 36.9271 89.4722 35.82C88.8597 34.7129 88.5535 33.4409 88.5535 32.004V20.5913H93.3942V31.2973C93.3942 32.4751 93.7357 33.4173 94.4188 34.124C95.1255 34.8307 96.0677 35.184 97.2455 35.184C98.0464 35.184 98.7648 35.0309 99.4008 34.7247C100.06 34.3949 100.602 33.9356 101.026 33.3467V20.5913H105.867V39H101.026V37.516C99.6128 38.7409 97.8815 39.3533 95.8322 39.3533ZM109.286 39V20.5913H114.127V22.6407C114.716 21.8398 115.422 21.2273 116.247 20.8033C117.071 20.3793 118.002 20.1673 119.038 20.1673C119.933 20.1909 120.605 20.3322 121.052 20.5913V24.8313C120.699 24.6664 120.31 24.5487 119.886 24.478C119.462 24.3838 119.026 24.3367 118.579 24.3367C117.637 24.3367 116.777 24.5722 115.999 25.0433C115.222 25.5144 114.598 26.1858 114.127 27.0573V39H109.286ZM130.429 39V14.2667H135.552V34.4773H149.085V39H130.429ZM160.229 39.3533C158.391 39.3533 156.731 38.9293 155.247 38.0813C153.763 37.2333 152.585 36.0909 151.713 34.654C150.842 33.2171 150.406 31.6036 150.406 29.8133C150.406 28.0231 150.83 26.4096 151.678 24.9727C152.55 23.5122 153.727 22.358 155.211 21.51C156.719 20.662 158.391 20.238 160.229 20.238C162.066 20.238 163.727 20.662 165.211 21.51C166.718 22.358 167.896 23.5122 168.744 24.9727C169.616 26.4096 170.051 28.0231 170.051 29.8133C170.051 31.6036 169.616 33.2171 168.744 34.654C167.896 36.0909 166.73 37.2333 165.246 38.0813C163.762 38.9293 162.09 39.3533 160.229 39.3533ZM160.229 35.1487C161.195 35.1487 162.054 34.9131 162.808 34.442C163.585 33.9709 164.198 33.3349 164.645 32.534C165.117 31.7096 165.352 30.8027 165.352 29.8133C165.352 28.8004 165.117 27.8936 164.645 27.0927C164.198 26.2918 163.585 25.6558 162.808 25.1847C162.054 24.69 161.195 24.4427 160.229 24.4427C159.287 24.4427 158.427 24.69 157.649 25.1847C156.872 25.6558 156.26 26.2918 155.812 27.0927C155.365 27.8936 155.141 28.8004 155.141 29.8133C155.141 30.8027 155.365 31.7096 155.812 32.534C156.26 33.3349 156.872 33.9709 157.649 34.442C158.427 34.9131 159.287 35.1487 160.229 35.1487ZM181.931 46.5613C180.518 46.5613 179.151 46.4082 177.832 46.102C176.513 45.8193 175.324 45.4071 174.264 44.8653L175.96 41.12C176.972 41.6147 177.962 41.9798 178.928 42.2153C179.893 42.4509 180.859 42.5687 181.825 42.5687C183.262 42.5687 184.345 42.2624 185.076 41.65C185.829 41.0376 186.206 40.1189 186.206 38.894V37.4453C184.699 38.5524 183.014 39.106 181.154 39.106C179.41 39.106 177.832 38.6938 176.419 37.8693C175.029 37.0213 173.91 35.8789 173.062 34.442C172.238 33.0051 171.826 31.4151 171.826 29.672C171.826 27.9289 172.238 26.3507 173.062 24.9373C173.91 23.524 175.053 22.4051 176.49 21.5807C177.926 20.7327 179.528 20.3087 181.295 20.3087C182.19 20.3087 183.062 20.4382 183.91 20.6973C184.758 20.9564 185.547 21.3216 186.277 21.7927V20.5913H191.047V38.9647C191.047 41.3909 190.258 43.2636 188.68 44.5827C187.125 45.9018 184.875 46.5613 181.931 46.5613ZM181.896 35.0073C182.791 35.0073 183.603 34.866 184.334 34.5833C185.064 34.2771 185.688 33.8531 186.206 33.3113V26.1033C185.688 25.5851 185.052 25.1847 184.298 24.902C183.568 24.5958 182.779 24.4427 181.931 24.4427C180.918 24.4427 180.011 24.6782 179.21 25.1493C178.409 25.5969 177.773 26.2211 177.302 27.022C176.831 27.7993 176.596 28.6827 176.596 29.672C176.596 30.6849 176.819 31.5918 177.267 32.3927C177.738 33.1936 178.374 33.8296 179.175 34.3007C179.999 34.7718 180.906 35.0073 181.896 35.0073ZM203.447 39.3533C201.61 39.3533 199.949 38.9293 198.465 38.0813C196.981 37.2333 195.803 36.0909 194.932 34.654C194.06 33.2171 193.625 31.6036 193.625 29.8133C193.625 28.0231 194.049 26.4096 194.897 24.9727C195.768 23.5122 196.946 22.358 198.43 21.51C199.937 20.662 201.61 20.238 203.447 20.238C205.285 20.238 206.945 20.662 208.429 21.51C209.937 22.358 211.115 23.5122 211.963 24.9727C212.834 26.4096 213.27 28.0231 213.27 29.8133C213.27 31.6036 212.834 33.2171 211.963 34.654C211.115 36.0909 209.949 37.2333 208.465 38.0813C206.981 38.9293 205.308 39.3533 203.447 39.3533ZM203.447 35.1487C204.413 35.1487 205.273 34.9131 206.027 34.442C206.804 33.9709 207.416 33.3349 207.864 32.534C208.335 31.7096 208.571 30.8027 208.571 29.8133C208.571 28.8004 208.335 27.8936 207.864 27.0927C207.416 26.2918 206.804 25.6558 206.027 25.1847C205.273 24.69 204.413 24.4427 203.447 24.4427C202.505 24.4427 201.645 24.69 200.868 25.1847C200.091 25.6558 199.478 26.2918 199.031 27.0927C198.583 27.8936 198.359 28.8004 198.359 29.8133C198.359 30.8027 198.583 31.7096 199.031 32.534C199.478 33.3349 200.091 33.9709 200.868 34.442C201.645 34.9131 202.505 35.1487 203.447 35.1487Z" fill="#FAFAFA"/>
</svg>
