<svg width="300" height="300" viewBox="0 0 300 300" fill="none" xmlns="http://www.w3.org/2000/svg">
<g clip-path="url(#clip0_1175_1556)">
<path d="M300 0H0V300H300V0Z" fill="white"/>
<path d="M27.8017 18.75H18.75V27.8017H27.8017V18.75Z" fill="black"/>
<path d="M36.8534 18.75H27.8017V27.8017H36.8534V18.75Z" fill="black"/>
<path d="M45.9052 18.75H36.8534V27.8017H45.9052V18.75Z" fill="black"/>
<path d="M54.9569 18.75H45.9052V27.8017H54.9569V18.75Z" fill="black"/>
<path d="M64.0086 18.75H54.9569V27.8017H64.0086V18.75Z" fill="black"/>
<path d="M73.0603 18.75H64.0086V27.8017H73.0603V18.75Z" fill="black"/>
<path d="M82.1121 18.75H73.0603V27.8017H82.1121V18.75Z" fill="black"/>
<path d="M100.216 18.75H91.1638V27.8017H100.216V18.75Z" fill="black"/>
<path d="M118.319 18.75H109.267V27.8017H118.319V18.75Z" fill="black"/>
<path d="M163.578 18.75H154.526V27.8017H163.578V18.75Z" fill="black"/>
<path d="M172.629 18.75H163.578V27.8017H172.629V18.75Z" fill="black"/>
<path d="M190.733 18.75H181.681V27.8017H190.733V18.75Z" fill="black"/>
<path d="M208.836 18.75H199.784V27.8017H208.836V18.75Z" fill="black"/>
<path d="M226.94 18.75H217.888V27.8017H226.94V18.75Z" fill="black"/>
<path d="M235.991 18.75H226.94V27.8017H235.991V18.75Z" fill="black"/>
<path d="M245.043 18.75H235.991V27.8017H245.043V18.75Z" fill="black"/>
<path d="M254.095 18.75H245.043V27.8017H254.095V18.75Z" fill="black"/>
<path d="M263.147 18.75H254.095V27.8017H263.147V18.75Z" fill="black"/>
<path d="M272.198 18.75H263.147V27.8017H272.198V18.75Z" fill="black"/>
<path d="M281.25 18.75H272.198V27.8017H281.25V18.75Z" fill="black"/>
<path d="M27.8017 27.8017H18.75V36.8534H27.8017V27.8017Z" fill="black"/>
<path d="M82.1121 27.8017H73.0603V36.8534H82.1121V27.8017Z" fill="black"/>
<path d="M109.267 27.8017H100.216V36.8534H109.267V27.8017Z" fill="black"/>
<path d="M118.319 27.8017H109.267V36.8534H118.319V27.8017Z" fill="black"/>
<path d="M127.371 27.8017H118.319V36.8534H127.371V27.8017Z" fill="black"/>
<path d="M136.422 27.8017H127.371V36.8534H136.422V27.8017Z" fill="black"/>
<path d="M154.526 27.8017H145.474V36.8534H154.526V27.8017Z" fill="black"/>
<path d="M163.578 27.8017H154.526V36.8534H163.578V27.8017Z" fill="black"/>
<path d="M226.94 27.8017H217.888V36.8534H226.94V27.8017Z" fill="black"/>
<path d="M281.25 27.8017H272.198V36.8534H281.25V27.8017Z" fill="black"/>
<path d="M27.8017 36.8534H18.75V45.9052H27.8017V36.8534Z" fill="black"/>
<path d="M45.9052 36.8534H36.8534V45.9052H45.9052V36.8534Z" fill="black"/>
<path d="M54.9569 36.8534H45.9052V45.9052H54.9569V36.8534Z" fill="black"/>
<path d="M64.0086 36.8534H54.9569V45.9052H64.0086V36.8534Z" fill="black"/>
<path d="M82.1121 36.8534H73.0603V45.9052H82.1121V36.8534Z" fill="black"/>
<path d="M118.319 36.8534H109.267V45.9052H118.319V36.8534Z" fill="black"/>
<path d="M127.371 36.8534H118.319V45.9052H127.371V36.8534Z" fill="black"/>
<path d="M136.422 36.8534H127.371V45.9052H136.422V36.8534Z" fill="black"/>
<path d="M145.474 36.8534H136.422V45.9052H145.474V36.8534Z" fill="black"/>
<path d="M163.578 36.8534H154.526V45.9052H163.578V36.8534Z" fill="black"/>
<path d="M172.629 36.8534H163.578V45.9052H172.629V36.8534Z" fill="black"/>
<path d="M199.784 36.8534H190.733V45.9052H199.784V36.8534Z" fill="black"/>
<path d="M208.836 36.8534H199.784V45.9052H208.836V36.8534Z" fill="black"/>
<path d="M226.94 36.8534H217.888V45.9052H226.94V36.8534Z" fill="black"/>
<path d="M245.043 36.8534H235.991V45.9052H245.043V36.8534Z" fill="black"/>
<path d="M254.095 36.8534H245.043V45.9052H254.095V36.8534Z" fill="black"/>
<path d="M263.147 36.8534H254.095V45.9052H263.147V36.8534Z" fill="black"/>
<path d="M281.25 36.8534H272.198V45.9052H281.25V36.8534Z" fill="black"/>
<path d="M27.8017 45.9052H18.75V54.9569H27.8017V45.9052Z" fill="black"/>
<path d="M45.9052 45.9052H36.8534V54.9569H45.9052V45.9052Z" fill="black"/>
<path d="M54.9569 45.9052H45.9052V54.9569H54.9569V45.9052Z" fill="black"/>
<path d="M64.0086 45.9052H54.9569V54.9569H64.0086V45.9052Z" fill="black"/>
<path d="M82.1121 45.9052H73.0603V54.9569H82.1121V45.9052Z" fill="black"/>
<path d="M100.216 45.9052H91.1638V54.9569H100.216V45.9052Z" fill="black"/>
<path d="M109.267 45.9052H100.216V54.9569H109.267V45.9052Z" fill="black"/>
<path d="M118.319 45.9052H109.267V54.9569H118.319V45.9052Z" fill="black"/>
<path d="M127.371 45.9052H118.319V54.9569H127.371V45.9052Z" fill="black"/>
<path d="M145.474 45.9052H136.422V54.9569H145.474V45.9052Z" fill="black"/>
<path d="M172.629 45.9052H163.578V54.9569H172.629V45.9052Z" fill="black"/>
<path d="M199.784 45.9052H190.733V54.9569H199.784V45.9052Z" fill="black"/>
<path d="M226.94 45.9052H217.888V54.9569H226.94V45.9052Z" fill="black"/>
<path d="M245.043 45.9052H235.991V54.9569H245.043V45.9052Z" fill="black"/>
<path d="M254.095 45.9052H245.043V54.9569H254.095V45.9052Z" fill="black"/>
<path d="M263.147 45.9052H254.095V54.9569H263.147V45.9052Z" fill="black"/>
<path d="M281.25 45.9052H272.198V54.9569H281.25V45.9052Z" fill="black"/>
<path d="M27.8017 54.9569H18.75V64.0086H27.8017V54.9569Z" fill="black"/>
<path d="M45.9052 54.9569H36.8534V64.0086H45.9052V54.9569Z" fill="black"/>
<path d="M54.9569 54.9569H45.9052V64.0086H54.9569V54.9569Z" fill="black"/>
<path d="M64.0086 54.9569H54.9569V64.0086H64.0086V54.9569Z" fill="black"/>
<path d="M82.1121 54.9569H73.0603V64.0086H82.1121V54.9569Z" fill="black"/>
<path d="M145.474 54.9569H136.422V64.0086H145.474V54.9569Z" fill="black"/>
<path d="M154.526 54.9569H145.474V64.0086H154.526V54.9569Z" fill="black"/>
<path d="M163.578 54.9569H154.526V64.0086H163.578V54.9569Z" fill="black"/>
<path d="M181.681 54.9569H172.629V64.0086H181.681V54.9569Z" fill="black"/>
<path d="M226.94 54.9569H217.888V64.0086H226.94V54.9569Z" fill="black"/>
<path d="M245.043 54.9569H235.991V64.0086H245.043V54.9569Z" fill="black"/>
<path d="M254.095 54.9569H245.043V64.0086H254.095V54.9569Z" fill="black"/>
<path d="M263.147 54.9569H254.095V64.0086H263.147V54.9569Z" fill="black"/>
<path d="M281.25 54.9569H272.198V64.0086H281.25V54.9569Z" fill="black"/>
<path d="M27.8017 64.0086H18.75V73.0603H27.8017V64.0086Z" fill="black"/>
<path d="M82.1121 64.0086H73.0603V73.0603H82.1121V64.0086Z" fill="black"/>
<path d="M100.216 64.0086H91.1638V73.0603H100.216V64.0086Z" fill="black"/>
<path d="M109.267 64.0086H100.216V73.0603H109.267V64.0086Z" fill="black"/>
<path d="M118.319 64.0086H109.267V73.0603H118.319V64.0086Z" fill="black"/>
<path d="M127.371 64.0086H118.319V73.0603H127.371V64.0086Z" fill="black"/>
<path d="M136.422 64.0086H127.371V73.0603H136.422V64.0086Z" fill="black"/>
<path d="M145.474 64.0086H136.422V73.0603H145.474V64.0086Z" fill="black"/>
<path d="M163.578 64.0086H154.526V73.0603H163.578V64.0086Z" fill="black"/>
<path d="M172.629 64.0086H163.578V73.0603H172.629V64.0086Z" fill="black"/>
<path d="M226.94 64.0086H217.888V73.0603H226.94V64.0086Z" fill="black"/>
<path d="M281.25 64.0086H272.198V73.0603H281.25V64.0086Z" fill="black"/>
<path d="M27.8017 73.0603H18.75V82.1121H27.8017V73.0603Z" fill="black"/>
<path d="M36.8534 73.0603H27.8017V82.1121H36.8534V73.0603Z" fill="black"/>
<path d="M45.9052 73.0603H36.8534V82.1121H45.9052V73.0603Z" fill="black"/>
<path d="M54.9569 73.0603H45.9052V82.1121H54.9569V73.0603Z" fill="black"/>
<path d="M64.0086 73.0603H54.9569V82.1121H64.0086V73.0603Z" fill="black"/>
<path d="M73.0603 73.0603H64.0086V82.1121H73.0603V73.0603Z" fill="black"/>
<path d="M82.1121 73.0603H73.0603V82.1121H82.1121V73.0603Z" fill="black"/>
<path d="M100.216 73.0603H91.1638V82.1121H100.216V73.0603Z" fill="black"/>
<path d="M118.319 73.0603H109.267V82.1121H118.319V73.0603Z" fill="black"/>
<path d="M136.422 73.0603H127.371V82.1121H136.422V73.0603Z" fill="black"/>
<path d="M154.526 73.0603H145.474V82.1121H154.526V73.0603Z" fill="black"/>
<path d="M172.629 73.0603H163.578V82.1121H172.629V73.0603Z" fill="black"/>
<path d="M190.733 73.0603H181.681V82.1121H190.733V73.0603Z" fill="black"/>
<path d="M208.836 73.0603H199.784V82.1121H208.836V73.0603Z" fill="black"/>
<path d="M226.94 73.0603H217.888V82.1121H226.94V73.0603Z" fill="black"/>
<path d="M235.991 73.0603H226.94V82.1121H235.991V73.0603Z" fill="black"/>
<path d="M245.043 73.0603H235.991V82.1121H245.043V73.0603Z" fill="black"/>
<path d="M254.095 73.0603H245.043V82.1121H254.095V73.0603Z" fill="black"/>
<path d="M263.147 73.0603H254.095V82.1121H263.147V73.0603Z" fill="black"/>
<path d="M272.198 73.0603H263.147V82.1121H272.198V73.0603Z" fill="black"/>
<path d="M281.25 73.0603H272.198V82.1121H281.25V73.0603Z" fill="black"/>
<path d="M109.267 82.1121H100.216V91.1638H109.267V82.1121Z" fill="black"/>
<path d="M154.526 82.1121H145.474V91.1638H154.526V82.1121Z" fill="black"/>
<path d="M181.681 82.1121H172.629V91.1638H181.681V82.1121Z" fill="black"/>
<path d="M190.733 82.1121H181.681V91.1638H190.733V82.1121Z" fill="black"/>
<path d="M199.784 82.1121H190.733V91.1638H199.784V82.1121Z" fill="black"/>
<path d="M208.836 82.1121H199.784V91.1638H208.836V82.1121Z" fill="black"/>
<path d="M73.0603 91.1638H64.0086V100.216H73.0603V91.1638Z" fill="black"/>
<path d="M82.1121 91.1638H73.0603V100.216H82.1121V91.1638Z" fill="black"/>
<path d="M100.216 91.1638H91.1638V100.216H100.216V91.1638Z" fill="black"/>
<path d="M109.267 91.1638H100.216V100.216H109.267V91.1638Z" fill="black"/>
<path d="M127.371 91.1638H118.319V100.216H127.371V91.1638Z" fill="black"/>
<path d="M136.422 91.1638H127.371V100.216H136.422V91.1638Z" fill="black"/>
<path d="M154.526 91.1638H145.474V100.216H154.526V91.1638Z" fill="black"/>
<path d="M163.578 91.1638H154.526V100.216H163.578V91.1638Z" fill="black"/>
<path d="M172.629 91.1638H163.578V100.216H172.629V91.1638Z" fill="black"/>
<path d="M181.681 91.1638H172.629V100.216H181.681V91.1638Z" fill="black"/>
<path d="M217.888 91.1638H208.836V100.216H217.888V91.1638Z" fill="black"/>
<path d="M235.991 91.1638H226.94V100.216H235.991V91.1638Z" fill="black"/>
<path d="M254.095 91.1638H245.043V100.216H254.095V91.1638Z" fill="black"/>
<path d="M281.25 91.1638H272.198V100.216H281.25V91.1638Z" fill="black"/>
<path d="M27.8017 100.216H18.75V109.267H27.8017V100.216Z" fill="black"/>
<path d="M54.9569 100.216H45.9052V109.267H54.9569V100.216Z" fill="black"/>
<path d="M91.1638 100.216H82.1121V109.267H91.1638V100.216Z" fill="black"/>
<path d="M100.216 100.216H91.1638V109.267H100.216V100.216Z" fill="black"/>
<path d="M109.267 100.216H100.216V109.267H109.267V100.216Z" fill="black"/>
<path d="M163.578 100.216H154.526V109.267H163.578V100.216Z" fill="black"/>
<path d="M181.681 100.216H172.629V109.267H181.681V100.216Z" fill="black"/>
<path d="M199.784 100.216H190.733V109.267H199.784V100.216Z" fill="black"/>
<path d="M217.888 100.216H208.836V109.267H217.888V100.216Z" fill="black"/>
<path d="M27.8017 109.267H18.75V118.319H27.8017V109.267Z" fill="black"/>
<path d="M54.9569 109.267H45.9052V118.319H54.9569V109.267Z" fill="black"/>
<path d="M64.0086 109.267H54.9569V118.319H64.0086V109.267Z" fill="black"/>
<path d="M82.1121 109.267H73.0603V118.319H82.1121V109.267Z" fill="black"/>
<path d="M91.1638 109.267H82.1121V118.319H91.1638V109.267Z" fill="black"/>
<path d="M100.216 109.267H91.1638V118.319H100.216V109.267Z" fill="black"/>
<path d="M118.319 109.267H109.267V118.319H118.319V109.267Z" fill="black"/>
<path d="M136.422 109.267H127.371V118.319H136.422V109.267Z" fill="black"/>
<path d="M163.578 109.267H154.526V118.319H163.578V109.267Z" fill="black"/>
<path d="M190.733 109.267H181.681V118.319H190.733V109.267Z" fill="black"/>
<path d="M208.836 109.267H199.784V118.319H208.836V109.267Z" fill="black"/>
<path d="M226.94 109.267H217.888V118.319H226.94V109.267Z" fill="black"/>
<path d="M245.043 109.267H235.991V118.319H245.043V109.267Z" fill="black"/>
<path d="M263.147 109.267H254.095V118.319H263.147V109.267Z" fill="black"/>
<path d="M281.25 109.267H272.198V118.319H281.25V109.267Z" fill="black"/>
<path d="M73.0603 118.319H64.0086V127.371H73.0603V118.319Z" fill="black"/>
<path d="M118.319 118.319H109.267V127.371H118.319V118.319Z" fill="black"/>
<path d="M145.474 118.319H136.422V127.371H145.474V118.319Z" fill="black"/>
<path d="M154.526 118.319H145.474V127.371H154.526V118.319Z" fill="black"/>
<path d="M172.629 118.319H163.578V127.371H172.629V118.319Z" fill="black"/>
<path d="M190.733 118.319H181.681V127.371H190.733V118.319Z" fill="black"/>
<path d="M199.784 118.319H190.733V127.371H199.784V118.319Z" fill="black"/>
<path d="M208.836 118.319H199.784V127.371H208.836V118.319Z" fill="black"/>
<path d="M217.888 118.319H208.836V127.371H217.888V118.319Z" fill="black"/>
<path d="M235.991 118.319H226.94V127.371H235.991V118.319Z" fill="black"/>
<path d="M245.043 118.319H235.991V127.371H245.043V118.319Z" fill="black"/>
<path d="M45.9052 127.371H36.8534V136.422H45.9052V127.371Z" fill="black"/>
<path d="M82.1121 127.371H73.0603V136.422H82.1121V127.371Z" fill="black"/>
<path d="M100.216 127.371H91.1638V136.422H100.216V127.371Z" fill="black"/>
<path d="M109.267 127.371H100.216V136.422H109.267V127.371Z" fill="black"/>
<path d="M118.319 127.371H109.267V136.422H118.319V127.371Z" fill="black"/>
<path d="M127.371 127.371H118.319V136.422H127.371V127.371Z" fill="black"/>
<path d="M136.422 127.371H127.371V136.422H136.422V127.371Z" fill="black"/>
<path d="M154.526 127.371H145.474V136.422H154.526V127.371Z" fill="black"/>
<path d="M163.578 127.371H154.526V136.422H163.578V127.371Z" fill="black"/>
<path d="M190.733 127.371H181.681V136.422H190.733V127.371Z" fill="black"/>
<path d="M199.784 127.371H190.733V136.422H199.784V127.371Z" fill="black"/>
<path d="M226.94 127.371H217.888V136.422H226.94V127.371Z" fill="black"/>
<path d="M245.043 127.371H235.991V136.422H245.043V127.371Z" fill="black"/>
<path d="M263.147 127.371H254.095V136.422H263.147V127.371Z" fill="black"/>
<path d="M281.25 127.371H272.198V136.422H281.25V127.371Z" fill="black"/>
<path d="M27.8017 136.422H18.75V145.474H27.8017V136.422Z" fill="black"/>
<path d="M36.8534 136.422H27.8017V145.474H36.8534V136.422Z" fill="black"/>
<path d="M45.9052 136.422H36.8534V145.474H45.9052V136.422Z" fill="black"/>
<path d="M54.9569 136.422H45.9052V145.474H54.9569V136.422Z" fill="black"/>
<path d="M64.0086 136.422H54.9569V145.474H64.0086V136.422Z" fill="black"/>
<path d="M73.0603 136.422H64.0086V145.474H73.0603V136.422Z" fill="black"/>
<path d="M163.578 136.422H154.526V145.474H163.578V136.422Z" fill="black"/>
<path d="M172.629 136.422H163.578V145.474H172.629V136.422Z" fill="black"/>
<path d="M190.733 136.422H181.681V145.474H190.733V136.422Z" fill="black"/>
<path d="M199.784 136.422H190.733V145.474H199.784V136.422Z" fill="black"/>
<path d="M217.888 136.422H208.836V145.474H217.888V136.422Z" fill="black"/>
<path d="M226.94 136.422H217.888V145.474H226.94V136.422Z" fill="black"/>
<path d="M235.991 136.422H226.94V145.474H235.991V136.422Z" fill="black"/>
<path d="M272.198 136.422H263.147V145.474H272.198V136.422Z" fill="black"/>
<path d="M281.25 136.422H272.198V145.474H281.25V136.422Z" fill="black"/>
<path d="M36.8534 145.474H27.8017V154.526H36.8534V145.474Z" fill="black"/>
<path d="M54.9569 145.474H45.9052V154.526H54.9569V145.474Z" fill="black"/>
<path d="M64.0086 145.474H54.9569V154.526H64.0086V145.474Z" fill="black"/>
<path d="M73.0603 145.474H64.0086V154.526H73.0603V145.474Z" fill="black"/>
<path d="M82.1121 145.474H73.0603V154.526H82.1121V145.474Z" fill="black"/>
<path d="M91.1638 145.474H82.1121V154.526H91.1638V145.474Z" fill="black"/>
<path d="M109.267 145.474H100.216V154.526H109.267V145.474Z" fill="black"/>
<path d="M127.371 145.474H118.319V154.526H127.371V145.474Z" fill="black"/>
<path d="M163.578 145.474H154.526V154.526H163.578V145.474Z" fill="black"/>
<path d="M172.629 145.474H163.578V154.526H172.629V145.474Z" fill="black"/>
<path d="M208.836 145.474H199.784V154.526H208.836V145.474Z" fill="black"/>
<path d="M226.94 145.474H217.888V154.526H226.94V145.474Z" fill="black"/>
<path d="M245.043 145.474H235.991V154.526H245.043V145.474Z" fill="black"/>
<path d="M254.095 145.474H245.043V154.526H254.095V145.474Z" fill="black"/>
<path d="M281.25 145.474H272.198V154.526H281.25V145.474Z" fill="black"/>
<path d="M36.8534 154.526H27.8017V163.578H36.8534V154.526Z" fill="black"/>
<path d="M54.9569 154.526H45.9052V163.578H54.9569V154.526Z" fill="black"/>
<path d="M100.216 154.526H91.1638V163.578H100.216V154.526Z" fill="black"/>
<path d="M109.267 154.526H100.216V163.578H109.267V154.526Z" fill="black"/>
<path d="M127.371 154.526H118.319V163.578H127.371V154.526Z" fill="black"/>
<path d="M145.474 154.526H136.422V163.578H145.474V154.526Z" fill="black"/>
<path d="M154.526 154.526H145.474V163.578H154.526V154.526Z" fill="black"/>
<path d="M172.629 154.526H163.578V163.578H172.629V154.526Z" fill="black"/>
<path d="M181.681 154.526H172.629V163.578H181.681V154.526Z" fill="black"/>
<path d="M199.784 154.526H190.733V163.578H199.784V154.526Z" fill="black"/>
<path d="M217.888 154.526H208.836V163.578H217.888V154.526Z" fill="black"/>
<path d="M226.94 154.526H217.888V163.578H226.94V154.526Z" fill="black"/>
<path d="M245.043 154.526H235.991V163.578H245.043V154.526Z" fill="black"/>
<path d="M254.095 154.526H245.043V163.578H254.095V154.526Z" fill="black"/>
<path d="M272.198 154.526H263.147V163.578H272.198V154.526Z" fill="black"/>
<path d="M27.8017 163.578H18.75V172.629H27.8017V163.578Z" fill="black"/>
<path d="M45.9052 163.578H36.8534V172.629H45.9052V163.578Z" fill="black"/>
<path d="M64.0086 163.578H54.9569V172.629H64.0086V163.578Z" fill="black"/>
<path d="M82.1121 163.578H73.0603V172.629H82.1121V163.578Z" fill="black"/>
<path d="M118.319 163.578H109.267V172.629H118.319V163.578Z" fill="black"/>
<path d="M136.422 163.578H127.371V172.629H136.422V163.578Z" fill="black"/>
<path d="M154.526 163.578H145.474V172.629H154.526V163.578Z" fill="black"/>
<path d="M163.578 163.578H154.526V172.629H163.578V163.578Z" fill="black"/>
<path d="M172.629 163.578H163.578V172.629H172.629V163.578Z" fill="black"/>
<path d="M199.784 163.578H190.733V172.629H199.784V163.578Z" fill="black"/>
<path d="M208.836 163.578H199.784V172.629H208.836V163.578Z" fill="black"/>
<path d="M217.888 163.578H208.836V172.629H217.888V163.578Z" fill="black"/>
<path d="M235.991 163.578H226.94V172.629H235.991V163.578Z" fill="black"/>
<path d="M254.095 163.578H245.043V172.629H254.095V163.578Z" fill="black"/>
<path d="M36.8534 172.629H27.8017V181.681H36.8534V172.629Z" fill="black"/>
<path d="M45.9052 172.629H36.8534V181.681H45.9052V172.629Z" fill="black"/>
<path d="M91.1638 172.629H82.1121V181.681H91.1638V172.629Z" fill="black"/>
<path d="M118.319 172.629H109.267V181.681H118.319V172.629Z" fill="black"/>
<path d="M136.422 172.629H127.371V181.681H136.422V172.629Z" fill="black"/>
<path d="M145.474 172.629H136.422V181.681H145.474V172.629Z" fill="black"/>
<path d="M163.578 172.629H154.526V181.681H163.578V172.629Z" fill="black"/>
<path d="M172.629 172.629H163.578V181.681H172.629V172.629Z" fill="black"/>
<path d="M190.733 172.629H181.681V181.681H190.733V172.629Z" fill="black"/>
<path d="M199.784 172.629H190.733V181.681H199.784V172.629Z" fill="black"/>
<path d="M226.94 172.629H217.888V181.681H226.94V172.629Z" fill="black"/>
<path d="M27.8017 181.681H18.75V190.733H27.8017V181.681Z" fill="black"/>
<path d="M36.8534 181.681H27.8017V190.733H36.8534V181.681Z" fill="black"/>
<path d="M45.9052 181.681H36.8534V190.733H45.9052V181.681Z" fill="black"/>
<path d="M54.9569 181.681H45.9052V190.733H54.9569V181.681Z" fill="black"/>
<path d="M64.0086 181.681H54.9569V190.733H64.0086V181.681Z" fill="black"/>
<path d="M82.1121 181.681H73.0603V190.733H82.1121V181.681Z" fill="black"/>
<path d="M91.1638 181.681H82.1121V190.733H91.1638V181.681Z" fill="black"/>
<path d="M100.216 181.681H91.1638V190.733H100.216V181.681Z" fill="black"/>
<path d="M145.474 181.681H136.422V190.733H145.474V181.681Z" fill="black"/>
<path d="M163.578 181.681H154.526V190.733H163.578V181.681Z" fill="black"/>
<path d="M181.681 181.681H172.629V190.733H181.681V181.681Z" fill="black"/>
<path d="M190.733 181.681H181.681V190.733H190.733V181.681Z" fill="black"/>
<path d="M199.784 181.681H190.733V190.733H199.784V181.681Z" fill="black"/>
<path d="M208.836 181.681H199.784V190.733H208.836V181.681Z" fill="black"/>
<path d="M235.991 181.681H226.94V190.733H235.991V181.681Z" fill="black"/>
<path d="M245.043 181.681H235.991V190.733H245.043V181.681Z" fill="black"/>
<path d="M27.8017 190.733H18.75V199.784H27.8017V190.733Z" fill="black"/>
<path d="M73.0603 190.733H64.0086V199.784H73.0603V190.733Z" fill="black"/>
<path d="M100.216 190.733H91.1638V199.784H100.216V190.733Z" fill="black"/>
<path d="M118.319 190.733H109.267V199.784H118.319V190.733Z" fill="black"/>
<path d="M127.371 190.733H118.319V199.784H127.371V190.733Z" fill="black"/>
<path d="M145.474 190.733H136.422V199.784H145.474V190.733Z" fill="black"/>
<path d="M199.784 190.733H190.733V199.784H199.784V190.733Z" fill="black"/>
<path d="M254.095 190.733H245.043V199.784H254.095V190.733Z" fill="black"/>
<path d="M263.147 190.733H254.095V199.784H263.147V190.733Z" fill="black"/>
<path d="M272.198 190.733H263.147V199.784H272.198V190.733Z" fill="black"/>
<path d="M45.9052 199.784H36.8534V208.836H45.9052V199.784Z" fill="black"/>
<path d="M82.1121 199.784H73.0603V208.836H82.1121V199.784Z" fill="black"/>
<path d="M109.267 199.784H100.216V208.836H109.267V199.784Z" fill="black"/>
<path d="M118.319 199.784H109.267V208.836H118.319V199.784Z" fill="black"/>
<path d="M145.474 199.784H136.422V208.836H145.474V199.784Z" fill="black"/>
<path d="M163.578 199.784H154.526V208.836H163.578V199.784Z" fill="black"/>
<path d="M172.629 199.784H163.578V208.836H172.629V199.784Z" fill="black"/>
<path d="M181.681 199.784H172.629V208.836H181.681V199.784Z" fill="black"/>
<path d="M208.836 199.784H199.784V208.836H208.836V199.784Z" fill="black"/>
<path d="M217.888 199.784H208.836V208.836H217.888V199.784Z" fill="black"/>
<path d="M226.94 199.784H217.888V208.836H226.94V199.784Z" fill="black"/>
<path d="M235.991 199.784H226.94V208.836H235.991V199.784Z" fill="black"/>
<path d="M245.043 199.784H235.991V208.836H245.043V199.784Z" fill="black"/>
<path d="M272.198 199.784H263.147V208.836H272.198V199.784Z" fill="black"/>
<path d="M281.25 199.784H272.198V208.836H281.25V199.784Z" fill="black"/>
<path d="M100.216 208.836H91.1638V217.888H100.216V208.836Z" fill="black"/>
<path d="M136.422 208.836H127.371V217.888H136.422V208.836Z" fill="black"/>
<path d="M154.526 208.836H145.474V217.888H154.526V208.836Z" fill="black"/>
<path d="M163.578 208.836H154.526V217.888H163.578V208.836Z" fill="black"/>
<path d="M172.629 208.836H163.578V217.888H172.629V208.836Z" fill="black"/>
<path d="M181.681 208.836H172.629V217.888H181.681V208.836Z" fill="black"/>
<path d="M190.733 208.836H181.681V217.888H190.733V208.836Z" fill="black"/>
<path d="M208.836 208.836H199.784V217.888H208.836V208.836Z" fill="black"/>
<path d="M245.043 208.836H235.991V217.888H245.043V208.836Z" fill="black"/>
<path d="M263.147 208.836H254.095V217.888H263.147V208.836Z" fill="black"/>
<path d="M272.198 208.836H263.147V217.888H272.198V208.836Z" fill="black"/>
<path d="M27.8017 217.888H18.75V226.94H27.8017V217.888Z" fill="black"/>
<path d="M36.8534 217.888H27.8017V226.94H36.8534V217.888Z" fill="black"/>
<path d="M45.9052 217.888H36.8534V226.94H45.9052V217.888Z" fill="black"/>
<path d="M54.9569 217.888H45.9052V226.94H54.9569V217.888Z" fill="black"/>
<path d="M64.0086 217.888H54.9569V226.94H64.0086V217.888Z" fill="black"/>
<path d="M73.0603 217.888H64.0086V226.94H73.0603V217.888Z" fill="black"/>
<path d="M82.1121 217.888H73.0603V226.94H82.1121V217.888Z" fill="black"/>
<path d="M109.267 217.888H100.216V226.94H109.267V217.888Z" fill="black"/>
<path d="M127.371 217.888H118.319V226.94H127.371V217.888Z" fill="black"/>
<path d="M136.422 217.888H127.371V226.94H136.422V217.888Z" fill="black"/>
<path d="M154.526 217.888H145.474V226.94H154.526V217.888Z" fill="black"/>
<path d="M181.681 217.888H172.629V226.94H181.681V217.888Z" fill="black"/>
<path d="M208.836 217.888H199.784V226.94H208.836V217.888Z" fill="black"/>
<path d="M226.94 217.888H217.888V226.94H226.94V217.888Z" fill="black"/>
<path d="M245.043 217.888H235.991V226.94H245.043V217.888Z" fill="black"/>
<path d="M254.095 217.888H245.043V226.94H254.095V217.888Z" fill="black"/>
<path d="M281.25 217.888H272.198V226.94H281.25V217.888Z" fill="black"/>
<path d="M27.8017 226.94H18.75V235.991H27.8017V226.94Z" fill="black"/>
<path d="M82.1121 226.94H73.0603V235.991H82.1121V226.94Z" fill="black"/>
<path d="M100.216 226.94H91.1638V235.991H100.216V226.94Z" fill="black"/>
<path d="M118.319 226.94H109.267V235.991H118.319V226.94Z" fill="black"/>
<path d="M127.371 226.94H118.319V235.991H127.371V226.94Z" fill="black"/>
<path d="M145.474 226.94H136.422V235.991H145.474V226.94Z" fill="black"/>
<path d="M181.681 226.94H172.629V235.991H181.681V226.94Z" fill="black"/>
<path d="M190.733 226.94H181.681V235.991H190.733V226.94Z" fill="black"/>
<path d="M199.784 226.94H190.733V235.991H199.784V226.94Z" fill="black"/>
<path d="M208.836 226.94H199.784V235.991H208.836V226.94Z" fill="black"/>
<path d="M245.043 226.94H235.991V235.991H245.043V226.94Z" fill="black"/>
<path d="M254.095 226.94H245.043V235.991H254.095V226.94Z" fill="black"/>
<path d="M272.198 226.94H263.147V235.991H272.198V226.94Z" fill="black"/>
<path d="M27.8017 235.991H18.75V245.043H27.8017V235.991Z" fill="black"/>
<path d="M45.9052 235.991H36.8534V245.043H45.9052V235.991Z" fill="black"/>
<path d="M54.9569 235.991H45.9052V245.043H54.9569V235.991Z" fill="black"/>
<path d="M64.0086 235.991H54.9569V245.043H64.0086V235.991Z" fill="black"/>
<path d="M82.1121 235.991H73.0603V245.043H82.1121V235.991Z" fill="black"/>
<path d="M118.319 235.991H109.267V245.043H118.319V235.991Z" fill="black"/>
<path d="M127.371 235.991H118.319V245.043H127.371V235.991Z" fill="black"/>
<path d="M154.526 235.991H145.474V245.043H154.526V235.991Z" fill="black"/>
<path d="M163.578 235.991H154.526V245.043H163.578V235.991Z" fill="black"/>
<path d="M190.733 235.991H181.681V245.043H190.733V235.991Z" fill="black"/>
<path d="M199.784 235.991H190.733V245.043H199.784V235.991Z" fill="black"/>
<path d="M208.836 235.991H199.784V245.043H208.836V235.991Z" fill="black"/>
<path d="M217.888 235.991H208.836V245.043H217.888V235.991Z" fill="black"/>
<path d="M226.94 235.991H217.888V245.043H226.94V235.991Z" fill="black"/>
<path d="M235.991 235.991H226.94V245.043H235.991V235.991Z" fill="black"/>
<path d="M245.043 235.991H235.991V245.043H245.043V235.991Z" fill="black"/>
<path d="M254.095 235.991H245.043V245.043H254.095V235.991Z" fill="black"/>
<path d="M263.147 235.991H254.095V245.043H263.147V235.991Z" fill="black"/>
<path d="M272.198 235.991H263.147V245.043H272.198V235.991Z" fill="black"/>
<path d="M281.25 235.991H272.198V245.043H281.25V235.991Z" fill="black"/>
<path d="M27.8017 245.043H18.75V254.095H27.8017V245.043Z" fill="black"/>
<path d="M45.9052 245.043H36.8534V254.095H45.9052V245.043Z" fill="black"/>
<path d="M54.9569 245.043H45.9052V254.095H54.9569V245.043Z" fill="black"/>
<path d="M64.0086 245.043H54.9569V254.095H64.0086V245.043Z" fill="black"/>
<path d="M82.1121 245.043H73.0603V254.095H82.1121V245.043Z" fill="black"/>
<path d="M109.267 245.043H100.216V254.095H109.267V245.043Z" fill="black"/>
<path d="M118.319 245.043H109.267V254.095H118.319V245.043Z" fill="black"/>
<path d="M127.371 245.043H118.319V254.095H127.371V245.043Z" fill="black"/>
<path d="M136.422 245.043H127.371V254.095H136.422V245.043Z" fill="black"/>
<path d="M163.578 245.043H154.526V254.095H163.578V245.043Z" fill="black"/>
<path d="M172.629 245.043H163.578V254.095H172.629V245.043Z" fill="black"/>
<path d="M190.733 245.043H181.681V254.095H190.733V245.043Z" fill="black"/>
<path d="M245.043 245.043H235.991V254.095H245.043V245.043Z" fill="black"/>
<path d="M254.095 245.043H245.043V254.095H254.095V245.043Z" fill="black"/>
<path d="M27.8017 254.095H18.75V263.147H27.8017V254.095Z" fill="black"/>
<path d="M45.9052 254.095H36.8534V263.147H45.9052V254.095Z" fill="black"/>
<path d="M54.9569 254.095H45.9052V263.147H54.9569V254.095Z" fill="black"/>
<path d="M64.0086 254.095H54.9569V263.147H64.0086V254.095Z" fill="black"/>
<path d="M82.1121 254.095H73.0603V263.147H82.1121V254.095Z" fill="black"/>
<path d="M118.319 254.095H109.267V263.147H118.319V254.095Z" fill="black"/>
<path d="M127.371 254.095H118.319V263.147H127.371V254.095Z" fill="black"/>
<path d="M145.474 254.095H136.422V263.147H145.474V254.095Z" fill="black"/>
<path d="M154.526 254.095H145.474V263.147H154.526V254.095Z" fill="black"/>
<path d="M208.836 254.095H199.784V263.147H208.836V254.095Z" fill="black"/>
<path d="M217.888 254.095H208.836V263.147H217.888V254.095Z" fill="black"/>
<path d="M235.991 254.095H226.94V263.147H235.991V254.095Z" fill="black"/>
<path d="M27.8017 263.147H18.75V272.198H27.8017V263.147Z" fill="black"/>
<path d="M82.1121 263.147H73.0603V272.198H82.1121V263.147Z" fill="black"/>
<path d="M118.319 263.147H109.267V272.198H118.319V263.147Z" fill="black"/>
<path d="M127.371 263.147H118.319V272.198H127.371V263.147Z" fill="black"/>
<path d="M136.422 263.147H127.371V272.198H136.422V263.147Z" fill="black"/>
<path d="M154.526 263.147H145.474V272.198H154.526V263.147Z" fill="black"/>
<path d="M163.578 263.147H154.526V272.198H163.578V263.147Z" fill="black"/>
<path d="M172.629 263.147H163.578V272.198H172.629V263.147Z" fill="black"/>
<path d="M190.733 263.147H181.681V272.198H190.733V263.147Z" fill="black"/>
<path d="M199.784 263.147H190.733V272.198H199.784V263.147Z" fill="black"/>
<path d="M217.888 263.147H208.836V272.198H217.888V263.147Z" fill="black"/>
<path d="M226.94 263.147H217.888V272.198H226.94V263.147Z" fill="black"/>
<path d="M235.991 263.147H226.94V272.198H235.991V263.147Z" fill="black"/>
<path d="M245.043 263.147H235.991V272.198H245.043V263.147Z" fill="black"/>
<path d="M272.198 263.147H263.147V272.198H272.198V263.147Z" fill="black"/>
<path d="M281.25 263.147H272.198V272.198H281.25V263.147Z" fill="black"/>
<path d="M27.8017 272.198H18.75V281.25H27.8017V272.198Z" fill="black"/>
<path d="M36.8534 272.198H27.8017V281.25H36.8534V272.198Z" fill="black"/>
<path d="M45.9052 272.198H36.8534V281.25H45.9052V272.198Z" fill="black"/>
<path d="M54.9569 272.198H45.9052V281.25H54.9569V272.198Z" fill="black"/>
<path d="M64.0086 272.198H54.9569V281.25H64.0086V272.198Z" fill="black"/>
<path d="M73.0603 272.198H64.0086V281.25H73.0603V272.198Z" fill="black"/>
<path d="M82.1121 272.198H73.0603V281.25H82.1121V272.198Z" fill="black"/>
<path d="M109.267 272.198H100.216V281.25H109.267V272.198Z" fill="black"/>
<path d="M136.422 272.198H127.371V281.25H136.422V272.198Z" fill="black"/>
<path d="M154.526 272.198H145.474V281.25H154.526V272.198Z" fill="black"/>
<path d="M181.681 272.198H172.629V281.25H181.681V272.198Z" fill="black"/>
<path d="M190.733 272.198H181.681V281.25H190.733V272.198Z" fill="black"/>
<path d="M199.784 272.198H190.733V281.25H199.784V272.198Z" fill="black"/>
<path d="M217.888 272.198H208.836V281.25H217.888V272.198Z" fill="black"/>
<path d="M254.095 272.198H245.043V281.25H254.095V272.198Z" fill="black"/>
<path d="M263.147 272.198H254.095V281.25H263.147V272.198Z" fill="black"/>
</g>
<defs>
<clipPath id="clip0_1175_1556">
<rect width="300" height="300" fill="white"/>
</clipPath>
</defs>
</svg>
